<svg width="60" height="60" viewBox="0 0 60 60" fill="none" xmlns="http://www.w3.org/2000/svg">
  <path fill-rule="evenodd" clip-rule="evenodd" d="M17.3733 14.4352C14.6975 15.1522 13.1095 17.9026 13.8265 20.5784L17.8105 35.4469C18.5275 38.1227 21.2779 39.7107 23.9537 38.9937L51.9202 31.5001C54.596 30.7831 56.1839 28.0327 55.4669 25.3569L51.4829 10.4884C50.7659 7.81257 48.0155 6.22463 45.3397 6.94161L17.3733 14.4352ZM48.5631 19.237C48.1997 17.8806 46.8055 17.0757 45.4492 17.4392L42.1747 18.3166C40.8184 18.68 40.0135 20.0741 40.3769 21.4304C40.7404 22.7868 42.1345 23.5917 43.4908 23.2283L46.7653 22.3509C48.1216 21.9874 48.9265 20.5933 48.5631 19.237Z" fill="#9ca3af"/>
  <path fill-rule="evenodd" clip-rule="evenodd" d="M12.2147 28.9319H8.25028C5.48007 28.9319 3.23438 31.1776 3.23438 33.9478V34.0178H13.5806C13.3443 33.1624 13.0968 32.2386 12.8295 31.2413C12.6105 30.4237 12.4046 29.6555 12.2147 28.9319ZM15.1569 38.9446H3.23438L3.23438 49.3408C3.23438 52.111 5.48007 54.3567 8.25028 54.3567L37.2032 54.3567C39.9734 54.3567 42.2191 52.111 42.2191 49.3408L42.2191 38.9446H41.8785C41.2128 39.126 40.5083 39.3147 39.7626 39.5145L31.1544 41.8211C24.3829 43.6355 20.9972 44.5427 18.3186 43.028C18.2796 43.0059 18.2408 42.9835 18.2023 42.9608C16.8512 42.1646 15.953 40.8948 15.1569 38.9446ZM12.6436 45.8819C14.0041 45.8819 15.107 46.9848 15.107 48.3453C15.107 49.7058 14.0041 50.8087 12.6436 50.8087H9.09545C7.73495 50.8087 6.63205 49.7058 6.63205 48.3453C6.63205 46.9848 7.73495 45.8819 9.09545 45.8819H12.6436Z" fill="#9ca3af"/>
</svg>
